<?xml version="1.0" standalone="no"?><!DOCTYPE svg PUBLIC "-//W3C//DTD SVG 1.1//EN" "http://www.w3.org/Graphics/SVG/1.1/DTD/svg11.dtd"><svg t="1588102964603" class="icon" viewBox="0 0 1413 1024" version="1.1" xmlns="http://www.w3.org/2000/svg" p-id="3285" xmlns:xlink="http://www.w3.org/1999/xlink" width="275.9765625" height="200"><defs><style type="text/css"></style></defs><path d="M538.664861 241.245875C501.721169 218.127641 458.263845 204.8 411.757466 204.8 277.449536 204.8 168.571446 315.955648 168.571446 453.073087 168.571446 526.883561 200.120843 593.171131 250.20317 638.647056 121.130777 700.635397 31.77931 834.598178 31.77931 989.866658 31.77931 989.866665 185.143985 989.866665 354.081434 989.866665L354.081434 989.866665C363.971662 800.25748 466.857066 635.827857 617.048276 543.193759 564.856295 478.086928 533.545338 394.87726 533.545338 304.206217 533.545338 282.754834 535.297882 261.721081 538.664861 241.245875Z" p-id="3286"></path><path d="M1099.507927 568.534567C1281.062322 642.205442 1408.882759 818.381782 1408.882759 1024L410.482759 1024C410.482759 818.381782 538.303195 642.205442 719.85759 568.534567 641.19605 511.142065 590.194759 418.983255 590.194759 315.076923 590.194759 141.064744 733.234409 0 909.682759 0 1086.131108 0 1229.170759 141.064744 1229.170759 315.076923 1229.170759 418.983255 1178.169468 511.142065 1099.507927 568.534567Z" p-id="3287"></path></svg>