<?xml version="1.0" standalone="no"?><!DOCTYPE svg PUBLIC "-//W3C//DTD SVG 1.1//EN" "http://www.w3.org/Graphics/SVG/1.1/DTD/svg11.dtd"><svg t="1588102991957" class="icon" viewBox="0 0 1024 1024" version="1.1" xmlns="http://www.w3.org/2000/svg" p-id="4668" xmlns:xlink="http://www.w3.org/1999/xlink" width="200" height="200"><defs><style type="text/css"></style></defs><path d="M512.6 65.3C265.4 65.3 65 265.6 65 512.8s200.4 447.6 447.6 447.6c247.2 0 447.6-200.4 447.6-447.6S759.8 65.3 512.6 65.3zM389.3 399.5l2.7-2.9-0.3-11.6c-1-32.7-2.2-69.9 23.1-96.7 9-9.6 37.1-29.2 81.5-29.1 55.1 0.1 77.6 18.9 84.2 35.3l1.3 3.3 3.2 1.7c34 18.1 33.2 46.4 32.3 79.1-0.1 4.3-0.3 9-0.3 14l-0.1 3.9 2.7 2.9c6.1 6.6 7.8 18.3 5.7 40.4-0.6 6.5-3.1 27-6.6 35.9-2.4 6-6.6 10.7-12.3 13.5 0 0-2.1 1.2-4 1.6-0.3 0-0.5 0.2-0.7 0.3-0.1 0.1-0.2 0.3-0.2 0.5-0.5 35-38.1 100.8-96.8 100.8s-96.3-65.7-96.8-100.8c0-0.2-0.1-0.4-0.2-0.5-0.2-0.2-0.3-0.3-0.6-0.4-2.1-0.5-4.1-1.6-4.1-1.6-5.7-2.8-10-7.5-12.4-13.5-3.7-9.3-6.1-30.7-6.6-36-2.3-21.6-0.7-33.6 5.3-40.1z m292.5 366.9l-0.2 0.1h-2.3c-46 0-268.8-0.2-377.6-0.2-27.4 0-47.7-25.4-41.7-52.2 9.6-43.4 23.8-91.7 40.6-101.3 17.8-11.5 62.3-9.1 109.7-39.5 0.2-0.1 0.5-0.4 0.5-0.4 4.8-3.7 12.5-4.5 12 2.4-2.4 17.1 17 75.9 42.5 130.8 6.4-22.2 18.3-53.5 20.7-58.9 0.5-1 0.2-2.6-0.5-3.5-3.5-4.2-12.6-15.4-14-21.2-1.9-7.6 2.1-12.7 8.1-17.6 2.5-2 6.5-2.8 9.4-1.4l10.3 4.6c2.9 1.4 7.5 1.4 10.4 0l10.3-4.6c2.9-1.4 6.9-0.6 9.4 1.4 6 4.8 10 10 8.1 17.6-1.4 5.8-10.5 17.1-14 21.2-0.7 0.9-1 2.4-0.5 3.5 2.4 5.5 14.5 36.7 20.9 59 25.5-54.9 44.9-113.7 42.5-130.8-0.5-6.8 7.2-6 12-2.4 0 0 0.3 0.2 0.5 0.3 6.3 4 12.5 7.4 18.6 10.4 17.2-13.2 38.6-21.2 61.9-21.2 56.2 0 101.9 45.8 101.9 102-0.1 55.4-44.5 100.5-99.5 101.9z" p-id="4669"></path><path d="M679.2 588c-42.1 0-76.3 34.3-76.3 76.4 0 42.1 34.2 76.4 76.3 76.4 42.1 0 76.3-34.3 76.3-76.4 0.1-42.1-34.2-76.4-76.3-76.4z m64.5 76.4c0 7.1-5.7 12.8-12.8 12.8H691v39.9c0 7.1-5.7 12.8-12.8 12.8s-12.8-5.7-12.8-12.8v-39.9h-39.9c-7.1 0-12.8-5.7-12.8-12.8 0-7.1 5.7-12.8 12.8-12.8h39.9v-39.9c0-7.1 5.7-12.8 12.8-12.8s12.8 5.7 12.8 12.8v39.9h39.9c7 0 12.8 5.8 12.8 12.8z" p-id="4670"></path></svg>