<?xml version="1.0" standalone="no"?><!DOCTYPE svg PUBLIC "-//W3C//DTD SVG 1.1//EN" "http://www.w3.org/Graphics/SVG/1.1/DTD/svg11.dtd"><svg t="1588102874880" class="icon" viewBox="0 0 1024 1024" version="1.1" xmlns="http://www.w3.org/2000/svg" p-id="1194" xmlns:xlink="http://www.w3.org/1999/xlink" width="200" height="200"><defs><style type="text/css"></style></defs><path d="M406.457 423.035c-6.245 0-12.318-0.46-18.047-1.366-5.683-0.903-10.688-2.275-15.293-4.191-7.75-3.227-13.598-8.775-17.874-16.963-3.147-6.018-5.558-12.932-7.593-21.759-1.059-4.597-2.127-9.5-2.983-13.438l-0.197-0.9c-0.69-3.167-1.367-6.276-2.066-9.38l-0.126-0.56-0.157-0.564c-0.096-0.341-0.338-1.13-0.56-1.814l-0.061-0.187c-0.183-0.573-0.388-1.215-0.573-1.866-0.259-0.916-0.499-1.834-0.738-2.751-0.323-1.245-0.642-2.441-0.932-3.415l-2.421-8.16-7.113-4.675c-0.517-0.34-0.791-0.769-0.889-1.39l-0.098-0.583c-0.142-0.803-0.262-1.489-0.246-2.17 0.121-4.797 0.278-9.586 0.437-14.374l0.123-3.778c0.035-1.162 0.756-2.016 1.933-2.325l1.161-0.31c1.665-0.45 3.505-0.948 5.276-1.193 9.751-1.321 20.186-2.721 30.733-3.989 11.313-1.358 23.357-1.972 39.043-1.997l0.217-0.001c0.721-0.010 1.615-0.013 2.513-0.013 16.829 0 34.011 1.599 51.069 4.749 9.679 1.78 19.137 4.841 27.482 7.539 6.122 1.981 10.825 3.233 15.252 4.064 2.394 0.447 4.862 0.692 7.355 0.729l-20.128 51.954c-2.116 5.465-4.287 10.26-6.629 14.659-5.223 9.808-12.078 18.364-20.371 25.433-4.909 4.178-10.901 7.249-18.854 9.659-8.463 2.559-17.733 4.176-28.333 4.942-3.519 0.257-6.986 0.388-10.309 0.388zM385.574 413.161c2.195 0.546 4.245 1.013 6.322 1.328 5.488 0.822 11.060 1.239 16.574 1.239 9.753 0 19.69-1.307 29.529-3.882 8.283-2.171 14.829-5.634 20.016-10.585 3.855-3.674 7.252-8.124 10.69-13.997 5.593-9.551 9.647-19.581 12.050-29.81 1.787-7.63 2.386-14.42 1.831-20.765l-1.106-12.722-11.339-5.913c-3.811-2.025-7.882-3.038-13.205-4.245l-1.165-0.266c-10.781-2.487-22.182-3.652-38.093-3.89l-0.786-0.012-3.907 0.205c-3.762 0.197-8.447 0.442-13.056 0.82-9.249 0.75-17.561 2.112-25.395 4.163l-13.657 3.675-3.242 13.709c-0.43 1.855-0.653 3.665-0.921 6.021l-0.014 0.123c-0.069 0.618-0.137 1.194-0.208 1.765-0.662 5.34-0.738 10.636-0.227 15.758 0.733 7.427 1.874 17.221 4.199 26.993 1.796 7.547 4.404 13.802 7.973 19.119 1.875 2.789 3.983 5.006 6.449 6.78l6.093 4.384h4.595zM618.183 422.411c-9.859 0-18.889-0.821-27.603-2.511-8.485-1.653-15.838-4.217-22.465-7.835-9.469-5.164-17.279-12.935-23.221-23.103-4.018-6.865-7.631-14.117-10.737-21.562l-21.458-51.403c5.153-0.106 10.512-1.060 16.35-2.907 2.803-0.891 5.562-1.861 8.229-2.8 2.494-0.877 5.063-1.78 7.559-2.588 9.252-2.991 19.463-5.131 32.134-6.732 11.839-1.498 23.942-2.225 37.004-2.225 5.344 0 10.934 0.129 16.613 0.382l0.844 0.038c8.845 0.396 17.989 0.805 27.049 1.437 11.231 0.778 22.345 2.443 34.669 4.379 0.683 0.106 1.341 0.279 1.977 0.446l0.407 0.106c1.018 0.261 1.695 0.733 1.79 2.207 0.046 0.751 0.105 1.552 0.165 2.346l0.041 0.516c0.131 1.699 0.253 3.266 0.305 4.925 0.085 2.985 0.1 5.935 0.099 9.106l-3.451-6.278-4.931 16.975-0.053 0.036-2.305 8.078-8.435 29.162 1.47-0.829c-1.86 7.597-4.084 15.39-7.136 22.821-2.080 5.069-4.42 9.218-7.158 12.687-4.398 5.585-9.998 9.165-18.166 11.618-6.304 1.885-13.312 2.973-21.409 3.322-2.77 0.124-5.516 0.187-8.176 0.187zM607.263 309.305c-3.442 0.13-7.728 0.291-11.898 0.561-6.87 0.444-14.061 1.424-21.985 2.994-4.674 0.927-10.195 2.131-15.721 4.034l-14.453 4.981-1.179 15.241c-0.069 0.88-0.116 1.779-0.14 2.682-0.146 6.014 0.873 11.773 2.45 18.574 3.202 13.859 8.766 25.612 17.012 35.918 6.777 8.465 15.337 13.845 25.442 15.994 11.082 2.355 21.196 3.5 30.924 3.5l1.078-0.004c6.349-0.053 13.802-0.381 21.245-2.399 6.719-1.823 11.331-4.211 14.956-7.742 3.346-3.241 5.988-7.476 8.052-12.927 4.236-11.157 6.588-23.399 6.991-36.382l0.021-0.747c0.112-4.307-0.061-8.589-0.226-12.73l-0.079-2.002c-0.059-1.552-0.149-2.844-0.274-3.945l-0.371-3.238-1.243-3.005c-0.135-0.327-0.287-0.681-0.447-1.042l-4.45-10.033-10.582-2.949c-12.321-3.433-24.613-4.62-40.454-5.423l-1.028-0.052-3.642 0.14zM713.545 619.607l-144.814 263.571-21.473-62.789 39.636-79.253-79.322-79.246-79.342 79.246 39.683 79.253-25.585 64.277-140.778-265.059c0 0-299.961 158.676-299.961 315.758 0 43.393 17.884 83.467 61.677 83.467h890.498c43.522 0 61.87-39.733 61.87-82.855-0.001-147.508-302.093-316.369-302.093-316.369zM768.542 294.969l-0.189-12.386-10.406-6.965c-1.266-0.883-2.512-1.642-3.758-2.406-21.283-182.771-19.846-290.605-233.285-258.704-74.841 11.155-156.525-11.895-203.026 21.842-58.483 54.645-62.613 136.655-46.74 232.906-3.509 1.868-7.055 3.979-10.549 6.381l-10.406 6.971-0.189 12.38c-0.54 32.058 3.508 59.118 12.221 79.837 7.922 18.851 19.594 32.871 35.226 41.311 18.59 62.807 45.305 109.958 78.729 143.87 36.438 36.987 80.253 58 129.849 66.297l4.428 0.711 4.458-0.902c54.903-11.514 98.757-33.44 133.685-70.080 32.422-33.932 56.597-79.753 74.354-140.951 15.045-8.681 26.323-22.822 33.911-41.514 8.369-20.595 12.21-47.171 11.689-78.592zM711.966 355.682c-4.257 10.407-10.069 17.257-17.413 19.795l-12.090 4.222-3.305 12.227c-15.904 58.703-37.177 101.262-65.657 131.089-26.902 28.115-61.019 45.478-103.958 55.162-37.764-7.072-71.068-23.515-98.734-51.585-29.69-30.175-53.385-73.974-69.843-134.133l-3.494-12.798-12.812-3.942c-7.504-2.279-13.435-8.992-17.756-19.366-4.33-10.218-6.973-23.31-8.058-38.857 11.737-1.762 24.882-5.099 31.366-0.86 0.707-2.201 1.414-4.654 2.195-7.473l0.343 0.052 0.955-5.118c3.54-13.974 7.521-101.438 11.082-115.527 1.399-4.115 1.901-8.787 4.603-12.090 17.187 23.31 147.273 25.958 222.789-26.196l-14.11 38.045 14.352 2.816 16.117-25.625-2.027 17.948 15.273 2.004 9.493-29.468c18.707 10.67 39.425 24.955 57.91 17.186 6.154 13.838 10.893 98.102 13.97 114.371l3.98 20.854 6.949-0.432 3.25 10.877c8.18-0.988 15.341-1.156 22.396-1.279-1.058 15.163-3.654 27.959-7.765 38.096z" p-id="1195"></path></svg>